{"accessors" : [{"bufferView" : 0, "byteOffset" : 0, "componentType" : 5123, "count" : 576, "type" : "SCALAR", "max" : [575], "min" : [0]}, {"bufferView" : 1, "byteOffset" : 0, "componentType" : 5126, "count" : 576, "type" : "VEC3", "max" : [0.060972511768341064, 0.02330815978348255, 0.05635495111346245], "min" : [-0.04850459098815918, -0.13987649977207184, -0.16405309736728668], "name" : "POSITION"}, {"bufferView" : 0, "byteOffset" : 1152, "componentType" : 5123, "count" : 3765, "type" : "SCALAR", "max" : [3763], "min" : [0]}, {"bufferView" : 2, "byteOffset" : 0, "componentType" : 5126, "count" : 3764, "type" : "VEC3", "max" : [0.07612047344446182, 0.14284870028495789, 0.1507008969783783], "min" : [-0.09450381994247437, -0.17850449681282043, -0.1916166990995407], "name" : "POSITION"}, {"bufferView" : 0, "byteOffset" : 8684, "componentType" : 5123, "count" : 324, "type" : "SCALAR", "max" : [323], "min" : [0]}, {"bufferView" : 3, "byteOffset" : 0, "componentType" : 5126, "count" : 324, "type" : "VEC3", "max" : [-0.004636526107788086, 0.08604109287261963, 0.10744590312242508], "min" : [-0.07355517148971558, -0.09196770191192627, -0.13948559761047363], "name" : "POSITION"}, {"bufferView" : 0, "byteOffset" : 9332, "componentType" : 5123, "count" : 4710, "type" : "SCALAR", "max" : [4709], "min" : [0]}, {"bufferView" : 4, "byteOffset" : 0, "componentType" : 5126, "count" : 4710, "type" : "VEC3", "max" : [0.03265153989195824, 0.11625169962644577, 0.13946010172367096], "min" : [-0.0809175968170166, -0.13334989547729492, -0.17224769294261932], "name" : "POSITION"}, {"bufferView" : 0, "byteOffset" : 18752, "componentType" : 5123, "count" : 420, "type" : "SCALAR", "max" : [419], "min" : [0]}, {"bufferView" : 5, "byteOffset" : 0, "componentType" : 5126, "count" : 420, "type" : "VEC3", "max" : [0.6873871088027954, 0.16991129517555237, 0.21776080131530762], "min" : [0.09381622076034546, -0.25467509031295776, -0.2557919919490814], "name" : "POSITION"}, {"bufferView" : 0, "byteOffset" : 19592, "componentType" : 5123, "count" : 852, "type" : "SCALAR", "max" : [846], "min" : [0]}, {"bufferView" : 6, "byteOffset" : 0, "componentType" : 5126, "count" : 847, "type" : "VEC3", "max" : [0.6538161039352417, 0.15736700594425201, 0.1821472942829132], "min" : [-0.07434380054473877, -0.23467490077018738, -0.2219018042087555], "name" : "POSITION"}, {"bufferView" : 0, "byteOffset" : 21296, "componentType" : 5123, "count" : 105, "type" : "SCALAR", "max" : [102], "min" : [0]}, {"bufferView" : 7, "byteOffset" : 0, "componentType" : 5126, "count" : 103, "type" : "VEC3", "max" : [0.024255160242319107, 0.1239738017320633, 0.14636699855327606], "min" : [-0.009350776672363281, -0.21517500281333923, -0.2002989947795868], "name" : "POSITION"}], "asset" : {"generator" : "Aspose.3D 22.10", "version" : "2.0"}, "buffers" : [{"uri" : "data:application/octet-stream;base64,", "byteLength" : 150564}], "bufferViews" : [{"buffer" : 0, "byteOffset" : 0, "byteLength" : 21508, "target" : 34963}, {"buffer" : 0, "byteOffset" : 21512, "byteLength" : 6912, "byteStride" : 12, "target" : 34962}, {"buffer" : 0, "byteOffset" : 28428, "byteLength" : 45180, "byteStride" : 12, "target" : 34962}, {"buffer" : 0, "byteOffset" : 73612, "byteLength" : 3888, "byteStride" : 12, "target" : 34962}, {"buffer" : 0, "byteOffset" : 77504, "byteLength" : 56520, "byteStride" : 12, "target" : 34962}, {"buffer" : 0, "byteOffset" : 134028, "byteLength" : 5040, "byteStride" : 12, "target" : 34962}, {"buffer" : 0, "byteOffset" : 139072, "byteLength" : 10224, "byteStride" : 12, "target" : 34962}, {"buffer" : 0, "byteOffset" : 149300, "byteLength" : 1260, "byteStride" : 12, "target" : 34962}], "materials" : [{"name" : "mat21", "pbrMetallicRoughness" : {"baseColorFactor" : [1, 1, 1, 1], "metallicFactor" : 0, "roughnessFactor" : 1}, "emissiveFactor" : [0, 0, 0], "alphaMode" : "OPAQUE", "doubleSided" : false}, {"name" : "mat9", "pbrMetallicRoughness" : {"baseColorFactor" : [0.27, 0.55, 0.07, 1], "metallicFactor" : 0, "roughnessFactor" : 1}, "emissiveFactor" : [0, 0, 0], "alphaMode" : "OPAQUE", "doubleSided" : false}, {"name" : "mat8", "pbrMetallicRoughness" : {"baseColorFactor" : [0.91, 0.05, 0.03, 1], "metallicFactor" : 0, "roughnessFactor" : 1}, "emissiveFactor" : [0, 0, 0], "alphaMode" : "OPAQUE", "doubleSided" : false}, {"name" : "mat12", "pbrMetallicRoughness" : {"baseColorFactor" : [1, 0.83, 0.04, 1], "metallicFactor" : 0, "roughnessFactor" : 1}, "emissiveFactor" : [0, 0, 0], "alphaMode" : "OPAQUE", "doubleSided" : false}, {"name" : "mat15", "pbrMetallicRoughness" : {"baseColorFactor" : [0.63, 0.7, 0.72, 1], "metallicFactor" : 0, "roughnessFactor" : 1}, "emissiveFactor" : [0, 0, 0], "alphaMode" : "OPAQUE", "doubleSided" : false}, {"name" : "mat18", "pbrMetallicRoughness" : {"baseColorFactor" : [1, 0.61, 0.25, 1], "metallicFactor" : 0, "roughnessFactor" : 1}, "emissiveFactor" : [0, 0, 0], "alphaMode" : "OPAQUE", "doubleSided" : false}, {"name" : "mat20", "pbrMetallicRoughness" : {"baseColorFactor" : [0.19, 0.09, 0.06, 1], "metallicFactor" : 0, "roughnessFactor" : 1}, "emissiveFactor" : [0, 0, 0], "alphaMode" : "OPAQUE", "doubleSided" : false}], "meshes" : [{"primitives" : [{"attributes" : {"POSITION" : 1}, "indices" : 0, "material" : 0, "mode" : 4}, {"attributes" : {"POSITION" : 3}, "indices" : 2, "material" : 1, "mode" : 4}, {"attributes" : {"POSITION" : 5}, "indices" : 4, "material" : 2, "mode" : 4}, {"attributes" : {"POSITION" : 7}, "indices" : 6, "material" : 3, "mode" : 4}, {"attributes" : {"POSITION" : 9}, "indices" : 8, "material" : 4, "mode" : 4}, {"attributes" : {"POSITION" : 11}, "indices" : 10, "material" : 5, "mode" : 4}, {"attributes" : {"POSITION" : 13}, "indices" : 12, "material" : 6, "mode" : 4}]}], "nodes" : [{"mesh" : 0, "name" : "Node"}], "scene" : 0, "scenes" : [{"nodes" : [0]}]}