{
  "accessors": [
    {
      "bufferView": 2,
      "componentType": 5126,
      "count": 1933,
      "max": [
        1.9964580535888672,
        9.620664596557617,
        1.7638180255889893
      ],
      "min": [
        -1.9313310384750366,
        6.8090667724609375,
        -1.7225760221481323
      ],
      "type": "VEC3"
    },
    {
      "bufferView": 2,
      "byteOffset": 23196,
      "componentType": 5126,
      "count": 1933,
      "max": [
        0.978663444519043,
        0.9804033041000366,
        0.9856226444244385
      ],
      "min": [
        -0.9778550267219543,
        -0.9801689982414246,
        -0.9859960079193115
      ],
      "type": "VEC3"
    },
    {
      "bufferView": 1,
      "componentType": 5126,
      "count": 1933,
      "max": [
        1.8615488678432806e+34,
        1.8610514635354957e+34
      ],
      "min": [
        -3.586043912277792e+30,
        0.0
      ],
      "type": "VEC2"
    },
    {
      "bufferView": 0,
      "componentType": 5125,
      "count": 1968,
      "type": "SCALAR"
    },
    {
      "bufferView": 2,
      "byteOffset": 46392,
      "componentType": 5126,
      "count": 2371,
      "max": [
        1.4659130573272705,
        6.841866970062256,
        2.6263840198516846
      ],
      "min": [
        -1.5654330253601074,
        -0.4925360083580017,
        -2.6305689811706543
      ],
      "type": "VEC3"
    },
    {
      "bufferView": 2,
      "byteOffset": 74844,
      "componentType": 5126,
      "count": 2371,
      "max": [
        0.995655357837677,
        0.9992688894271851,
        0.991118311882019
      ],
      "min": [
        -0.9965825080871582,
        -0.999035120010376,
        -0.9942944645881653
      ],
      "type": "VEC3"
    },
    {
      "bufferView": 1,
      "byteOffset": 15464,
      "componentType": 5126,
      "count": 2371,
      "max": [
        7.205959024599219e+31,
        7.5550769749204825e+31
      ],
      "min": [
        -3.586043912277792e+30,
        -1.9313310384750366
      ],
      "type": "VEC2"
    },
    {
      "bufferView": 0,
      "byteOffset": 7872,
      "componentType": 5125,
      "count": 2382,
      "type": "SCALAR"
    }
  ],
  "asset": {
    "extras": {
      "author": "IronEqual (https://sketchfab.com/ie-niels)",
      "license": "CC-BY-4.0 (http://creativecommons.org/licenses/by/4.0/)",
      "source": "https://sketchfab.com/3d-models/rose-from-poly-by-google-702642b95ec2426d9489dd5371aedc56",
      "title": "Rose from Poly by Google"
    },
    "generator": "Sketchfab-12.65.0",
    "version": "2.0"
  },
  "bufferViews": [
    {
      "buffer": 0,
      "byteLength": 17400,
      "name": "floatBufferViews",
      "target": 34963
    },
    {
      "buffer": 0,
      "byteLength": 34432,
      "byteOffset": 17400,
      "byteStride": 8,
      "name": "floatBufferViews",
      "target": 34962
    },
    {
      "buffer": 0,
      "byteLength": 103296,
      "byteOffset": 51832,
      "byteStride": 12,
      "name": "floatBufferViews",
      "target": 34962
    }
  ],
  "buffers": [
    {
      "byteLength": 155128,
      "uri": "scene.bin"
    }
  ],
  "materials": [
    {
      "doubleSided": true,
      "name": "F44336",
      "pbrMetallicRoughness": {
        "baseColorFactor": [
          0.956863,
          0.262745,
          0.211765,
          1.0
        ],
        "metallicFactor": 0.0,
        "roughnessFactor": 0.744802
      }
    },
    {
      "doubleSided": true,
      "name": "4CAF50",
      "pbrMetallicRoughness": {
        "baseColorFactor": [
          0.298039,
          0.686275,
          0.313726,
          1.0
        ],
        "metallicFactor": 0.0,
        "roughnessFactor": 0.744802
      }
    }
  ],
  "meshes": [
    {
      "name": "Object_0",
      "primitives": [
        {
          "attributes": {
            "NORMAL": 1,
            "POSITION": 0,
            "TEXCOORD_0": 2
          },
          "indices": 3,
          "material": 0,
          "mode": 4
        }
      ]
    },
    {
      "name": "Object_1",
      "primitives": [
        {
          "attributes": {
            "NORMAL": 5,
            "POSITION": 4,
            "TEXCOORD_0": 6
          },
          "indices": 7,
          "material": 1,
          "mode": 4
        }
      ]
    }
  ],
  "nodes": [
    {
      "children": [
        1
      ],
      "matrix": [
        1.0,
        0.0,
        0.0,
        0.0,
        0.0,
        2.220446049250313e-16,
        -1.0,
        0.0,
        0.0,
        1.0,
        2.220446049250313e-16,
        0.0,
        0.0,
        0.0,
        0.0,
        1.0
      ],
      "name": "Sketchfab_model"
    },
    {
      "children": [
        2
      ],
      "name": "root"
    },
    {
      "children": [
        3
      ],
      "matrix": [
        1.0,
        0.0,
        0.0,
        0.0,
        0.0,
        2.220446049250313e-16,
        1.0,
        0.0,
        0.0,
        -1.0,
        2.220446049250313e-16,
        0.0,
        0.0,
        0.0,
        0.0,
        1.0
      ],
      "name": "GLTF_SceneRootNode"
    },
    {
      "children": [
        4,
        5
      ],
      "name": "node-0_0"
    },
    {
      "mesh": 0,
      "name": "Object_4"
    },
    {
      "mesh": 1,
      "name": "Object_5"
    }
  ],
  "scene": 0,
  "scenes": [
    {
      "name": "Sketchfab_Scene",
      "nodes": [
        0
      ]
    }
  ]
}
